<svg xmlns="http://www.w3.org/2000/svg" width="20" height="20" viewBox="0 0 20 20" fill="none">
  <path d="M8.75 2.75H11.25L11.75 5.05C12.2 5.22 12.62 5.47 13 5.75L15.2 5L16.45 7.15L14.7 8.7C14.75 9.13 14.75 9.57 14.7 10L16.45 11.55L15.2 13.7L13 12.95C12.62 13.23 12.2 13.48 11.75 13.65L11.25 15.95H8.75L8.25 13.65C7.8 13.48 7.38 13.23 7 12.95L4.8 13.7L3.55 11.55L5.3 10C5.25 9.57 5.25 9.13 5.3 8.7L3.55 7.15L4.8 5L7 5.75C7.38 5.47 7.8 5.22 8.25 5.05L8.75 2.75Z" stroke="currentColor" stroke-width="1.45" stroke-linejoin="round"/>
  <circle cx="10" cy="9.35" r="2.25" stroke="currentColor" stroke-width="1.6"/>
</svg>
